<mxfile host="app.diagrams.net" agent="Mozilla/5.0 (Windows NT 10.0; Win64; x64) AppleWebKit/537.36 (KHTML, like Gecko) Chrome/131.0.0.0 Safari/537.36" version="24.9.1">
  <diagram name="Page-1" id="FEsPFIbKTugEUAN5IUgI">
    <mxGraphModel dx="1657" dy="1030" grid="1" gridSize="10" guides="1" tooltips="1" connect="1" arrows="1" fold="1" page="1" pageScale="1" pageWidth="827" pageHeight="1169" math="0" shadow="0">
      <root>
        <mxCell id="0" />
        <mxCell id="1" parent="0" />
        <mxCell id="x2fH5rVGVbDpRsm9OSpx-5" value="Is sort in progress" style="rhombus;whiteSpace=wrap;html=1;" parent="1" vertex="1">
          <mxGeometry x="310" y="280" width="80" height="80" as="geometry" />
        </mxCell>
        <mxCell id="x2fH5rVGVbDpRsm9OSpx-6" value="Is a sort selected" style="rhombus;whiteSpace=wrap;html=1;" parent="1" vertex="1">
          <mxGeometry x="470" y="280" width="80" height="80" as="geometry" />
        </mxCell>
        <mxCell id="x2fH5rVGVbDpRsm9OSpx-11" value="" style="endArrow=classic;html=1;rounded=0;exitX=1;exitY=0.5;exitDx=0;exitDy=0;entryX=0;entryY=0.5;entryDx=0;entryDy=0;" parent="1" source="x2fH5rVGVbDpRsm9OSpx-5" target="x2fH5rVGVbDpRsm9OSpx-6" edge="1">
          <mxGeometry width="50" height="50" relative="1" as="geometry">
            <mxPoint x="330" y="460" as="sourcePoint" />
            <mxPoint x="380" y="410" as="targetPoint" />
          </mxGeometry>
        </mxCell>
        <mxCell id="x2fH5rVGVbDpRsm9OSpx-12" value="Is sorting paused" style="rhombus;whiteSpace=wrap;html=1;" parent="1" vertex="1">
          <mxGeometry x="630" y="280" width="80" height="80" as="geometry" />
        </mxCell>
        <mxCell id="x2fH5rVGVbDpRsm9OSpx-13" value="" style="endArrow=classic;html=1;rounded=0;exitX=1;exitY=0.5;exitDx=0;exitDy=0;entryX=0;entryY=0.5;entryDx=0;entryDy=0;" parent="1" source="x2fH5rVGVbDpRsm9OSpx-6" target="x2fH5rVGVbDpRsm9OSpx-12" edge="1">
          <mxGeometry width="50" height="50" relative="1" as="geometry">
            <mxPoint x="530" y="470" as="sourcePoint" />
            <mxPoint x="580" y="420" as="targetPoint" />
          </mxGeometry>
        </mxCell>
        <mxCell id="x2fH5rVGVbDpRsm9OSpx-14" value="Resume Sorting" style="rounded=0;whiteSpace=wrap;html=1;" parent="1" vertex="1">
          <mxGeometry x="810" y="290" width="120" height="60" as="geometry" />
        </mxCell>
        <mxCell id="x2fH5rVGVbDpRsm9OSpx-15" value="" style="endArrow=classic;html=1;rounded=0;exitX=1;exitY=0.5;exitDx=0;exitDy=0;entryX=0;entryY=0.5;entryDx=0;entryDy=0;" parent="1" source="x2fH5rVGVbDpRsm9OSpx-12" target="x2fH5rVGVbDpRsm9OSpx-14" edge="1">
          <mxGeometry width="50" height="50" relative="1" as="geometry">
            <mxPoint x="530" y="470" as="sourcePoint" />
            <mxPoint x="580" y="420" as="targetPoint" />
          </mxGeometry>
        </mxCell>
        <mxCell id="x2fH5rVGVbDpRsm9OSpx-16" value="Start new sort operation" style="rounded=0;whiteSpace=wrap;html=1;" parent="1" vertex="1">
          <mxGeometry x="610" y="450" width="120" height="60" as="geometry" />
        </mxCell>
        <mxCell id="x2fH5rVGVbDpRsm9OSpx-17" value="" style="endArrow=classic;html=1;rounded=0;exitX=0.5;exitY=1;exitDx=0;exitDy=0;entryX=0.5;entryY=0;entryDx=0;entryDy=0;" parent="1" source="x2fH5rVGVbDpRsm9OSpx-12" target="x2fH5rVGVbDpRsm9OSpx-16" edge="1">
          <mxGeometry width="50" height="50" relative="1" as="geometry">
            <mxPoint x="530" y="470" as="sourcePoint" />
            <mxPoint x="580" y="420" as="targetPoint" />
          </mxGeometry>
        </mxCell>
        <mxCell id="x2fH5rVGVbDpRsm9OSpx-18" value="Yes" style="text;html=1;align=center;verticalAlign=middle;whiteSpace=wrap;rounded=0;" parent="1" vertex="1">
          <mxGeometry x="400" y="290" width="60" height="30" as="geometry" />
        </mxCell>
        <mxCell id="x2fH5rVGVbDpRsm9OSpx-19" value="Yes" style="text;html=1;align=center;verticalAlign=middle;whiteSpace=wrap;rounded=0;" parent="1" vertex="1">
          <mxGeometry x="560" y="290" width="60" height="30" as="geometry" />
        </mxCell>
        <mxCell id="x2fH5rVGVbDpRsm9OSpx-20" value="Yes" style="text;html=1;align=center;verticalAlign=middle;whiteSpace=wrap;rounded=0;" parent="1" vertex="1">
          <mxGeometry x="720" y="290" width="60" height="30" as="geometry" />
        </mxCell>
        <mxCell id="x2fH5rVGVbDpRsm9OSpx-21" value="No" style="text;html=1;align=center;verticalAlign=middle;whiteSpace=wrap;rounded=0;" parent="1" vertex="1">
          <mxGeometry x="670" y="380" width="60" height="30" as="geometry" />
        </mxCell>
        <mxCell id="x2fH5rVGVbDpRsm9OSpx-22" value="Start" style="rounded=1;whiteSpace=wrap;html=1;" parent="1" vertex="1">
          <mxGeometry x="290" y="160" width="120" height="60" as="geometry" />
        </mxCell>
        <mxCell id="x2fH5rVGVbDpRsm9OSpx-24" value="" style="endArrow=classic;html=1;rounded=0;exitX=0.5;exitY=1;exitDx=0;exitDy=0;entryX=0.5;entryY=0;entryDx=0;entryDy=0;" parent="1" source="x2fH5rVGVbDpRsm9OSpx-22" target="x2fH5rVGVbDpRsm9OSpx-5" edge="1">
          <mxGeometry width="50" height="50" relative="1" as="geometry">
            <mxPoint x="390" y="300" as="sourcePoint" />
            <mxPoint x="440" y="250" as="targetPoint" />
          </mxGeometry>
        </mxCell>
        <mxCell id="x2fH5rVGVbDpRsm9OSpx-25" value="Pause" style="rounded=1;whiteSpace=wrap;html=1;" parent="1" vertex="1">
          <mxGeometry x="60" y="390" width="120" height="60" as="geometry" />
        </mxCell>
        <mxCell id="x2fH5rVGVbDpRsm9OSpx-28" value="Is sorting paused" style="rhombus;whiteSpace=wrap;html=1;" parent="1" vertex="1">
          <mxGeometry x="80" y="530" width="80" height="80" as="geometry" />
        </mxCell>
        <mxCell id="x2fH5rVGVbDpRsm9OSpx-29" value="" style="endArrow=classic;html=1;rounded=0;exitX=0.5;exitY=1;exitDx=0;exitDy=0;entryX=0.5;entryY=0;entryDx=0;entryDy=0;" parent="1" source="x2fH5rVGVbDpRsm9OSpx-25" target="x2fH5rVGVbDpRsm9OSpx-28" edge="1">
          <mxGeometry width="50" height="50" relative="1" as="geometry">
            <mxPoint x="210" y="410" as="sourcePoint" />
            <mxPoint x="260" y="360" as="targetPoint" />
          </mxGeometry>
        </mxCell>
        <mxCell id="x2fH5rVGVbDpRsm9OSpx-30" value="Pause sorting" style="rounded=0;whiteSpace=wrap;html=1;" parent="1" vertex="1">
          <mxGeometry x="60" y="700" width="120" height="60" as="geometry" />
        </mxCell>
        <mxCell id="x2fH5rVGVbDpRsm9OSpx-31" value="" style="endArrow=classic;html=1;rounded=0;exitX=0.5;exitY=1;exitDx=0;exitDy=0;entryX=0.5;entryY=0;entryDx=0;entryDy=0;" parent="1" source="x2fH5rVGVbDpRsm9OSpx-28" target="x2fH5rVGVbDpRsm9OSpx-30" edge="1">
          <mxGeometry width="50" height="50" relative="1" as="geometry">
            <mxPoint x="120" y="610" as="sourcePoint" />
            <mxPoint x="30" y="670" as="targetPoint" />
          </mxGeometry>
        </mxCell>
        <mxCell id="x2fH5rVGVbDpRsm9OSpx-32" value="No" style="text;html=1;align=center;verticalAlign=middle;whiteSpace=wrap;rounded=0;" parent="1" vertex="1">
          <mxGeometry x="120" y="630" width="60" height="30" as="geometry" />
        </mxCell>
        <mxCell id="x2fH5rVGVbDpRsm9OSpx-33" value="Step" style="rounded=1;whiteSpace=wrap;html=1;" parent="1" vertex="1">
          <mxGeometry x="450" y="610" width="120" height="60" as="geometry" />
        </mxCell>
        <mxCell id="x2fH5rVGVbDpRsm9OSpx-34" value="Is a sort selected" style="rhombus;whiteSpace=wrap;html=1;" parent="1" vertex="1">
          <mxGeometry x="470" y="770" width="80" height="80" as="geometry" />
        </mxCell>
        <mxCell id="x2fH5rVGVbDpRsm9OSpx-35" value="" style="endArrow=classic;html=1;rounded=0;exitX=0.5;exitY=1;exitDx=0;exitDy=0;entryX=0.5;entryY=0;entryDx=0;entryDy=0;" parent="1" source="x2fH5rVGVbDpRsm9OSpx-33" target="x2fH5rVGVbDpRsm9OSpx-34" edge="1">
          <mxGeometry width="50" height="50" relative="1" as="geometry">
            <mxPoint x="460" y="790" as="sourcePoint" />
            <mxPoint x="510" y="740" as="targetPoint" />
          </mxGeometry>
        </mxCell>
        <mxCell id="x2fH5rVGVbDpRsm9OSpx-36" value="Is sort in progress" style="rhombus;whiteSpace=wrap;html=1;" parent="1" vertex="1">
          <mxGeometry x="640" y="770" width="80" height="80" as="geometry" />
        </mxCell>
        <mxCell id="x2fH5rVGVbDpRsm9OSpx-37" value="" style="endArrow=classic;html=1;rounded=0;exitX=1;exitY=0.5;exitDx=0;exitDy=0;entryX=0;entryY=0.5;entryDx=0;entryDy=0;" parent="1" target="x2fH5rVGVbDpRsm9OSpx-36" edge="1">
          <mxGeometry width="50" height="50" relative="1" as="geometry">
            <mxPoint x="550" y="810" as="sourcePoint" />
            <mxPoint x="630" y="810" as="targetPoint" />
          </mxGeometry>
        </mxCell>
        <mxCell id="x2fH5rVGVbDpRsm9OSpx-38" value="Yes" style="text;html=1;align=center;verticalAlign=middle;whiteSpace=wrap;rounded=0;" parent="1" vertex="1">
          <mxGeometry x="560" y="780" width="60" height="30" as="geometry" />
        </mxCell>
        <mxCell id="x2fH5rVGVbDpRsm9OSpx-42" value="" style="endArrow=classic;html=1;rounded=0;exitX=1;exitY=0.5;exitDx=0;exitDy=0;entryX=0;entryY=0.5;entryDx=0;entryDy=0;" parent="1" edge="1">
          <mxGeometry width="50" height="50" relative="1" as="geometry">
            <mxPoint x="720" y="809.53" as="sourcePoint" />
            <mxPoint x="810" y="809.53" as="targetPoint" />
          </mxGeometry>
        </mxCell>
        <mxCell id="x2fH5rVGVbDpRsm9OSpx-43" value="Yes" style="text;html=1;align=center;verticalAlign=middle;whiteSpace=wrap;rounded=0;" parent="1" vertex="1">
          <mxGeometry x="730" y="779.53" width="60" height="30" as="geometry" />
        </mxCell>
        <mxCell id="x2fH5rVGVbDpRsm9OSpx-44" value="" style="endArrow=classic;html=1;rounded=0;exitX=0.5;exitY=1;exitDx=0;exitDy=0;entryX=0.5;entryY=0;entryDx=0;entryDy=0;" parent="1" edge="1">
          <mxGeometry width="50" height="50" relative="1" as="geometry">
            <mxPoint x="680" y="850" as="sourcePoint" />
            <mxPoint x="680" y="940" as="targetPoint" />
          </mxGeometry>
        </mxCell>
        <mxCell id="x2fH5rVGVbDpRsm9OSpx-45" value="No" style="text;html=1;align=center;verticalAlign=middle;whiteSpace=wrap;rounded=0;" parent="1" vertex="1">
          <mxGeometry x="680" y="870" width="60" height="30" as="geometry" />
        </mxCell>
        <mxCell id="x2fH5rVGVbDpRsm9OSpx-46" value="Start new sort operation" style="rounded=0;whiteSpace=wrap;html=1;" parent="1" vertex="1">
          <mxGeometry x="620" y="940" width="120" height="60" as="geometry" />
        </mxCell>
        <mxCell id="x2fH5rVGVbDpRsm9OSpx-47" value="Pause sort" style="rounded=0;whiteSpace=wrap;html=1;" parent="1" vertex="1">
          <mxGeometry x="810" y="780" width="120" height="60" as="geometry" />
        </mxCell>
        <mxCell id="x2fH5rVGVbDpRsm9OSpx-48" value="" style="endArrow=classic;html=1;rounded=0;exitX=1;exitY=0.5;exitDx=0;exitDy=0;entryX=0.5;entryY=1;entryDx=0;entryDy=0;" parent="1" source="x2fH5rVGVbDpRsm9OSpx-46" target="x2fH5rVGVbDpRsm9OSpx-47" edge="1">
          <mxGeometry width="50" height="50" relative="1" as="geometry">
            <mxPoint x="720" y="890" as="sourcePoint" />
            <mxPoint x="770" y="840" as="targetPoint" />
            <Array as="points">
              <mxPoint x="870" y="970" />
            </Array>
          </mxGeometry>
        </mxCell>
        <mxCell id="x2fH5rVGVbDpRsm9OSpx-49" value="Perform 1 step in sort" style="rounded=0;whiteSpace=wrap;html=1;" parent="1" vertex="1">
          <mxGeometry x="1000" y="779.53" width="120" height="60" as="geometry" />
        </mxCell>
        <mxCell id="x2fH5rVGVbDpRsm9OSpx-50" value="" style="endArrow=classic;html=1;rounded=0;entryX=0;entryY=0.5;entryDx=0;entryDy=0;" parent="1" target="x2fH5rVGVbDpRsm9OSpx-49" edge="1">
          <mxGeometry width="50" height="50" relative="1" as="geometry">
            <mxPoint x="930" y="810" as="sourcePoint" />
            <mxPoint x="970" y="770" as="targetPoint" />
          </mxGeometry>
        </mxCell>
        <mxCell id="x2fH5rVGVbDpRsm9OSpx-52" value="Reset" style="rounded=1;whiteSpace=wrap;html=1;" parent="1" vertex="1">
          <mxGeometry x="1090" y="170" width="120" height="60" as="geometry" />
        </mxCell>
        <mxCell id="x2fH5rVGVbDpRsm9OSpx-53" value="Stop current sort operation" style="rounded=0;whiteSpace=wrap;html=1;" parent="1" vertex="1">
          <mxGeometry x="1090" y="290" width="120" height="60" as="geometry" />
        </mxCell>
        <mxCell id="x2fH5rVGVbDpRsm9OSpx-54" value="Reset array and statistics to default state" style="rounded=0;whiteSpace=wrap;html=1;" parent="1" vertex="1">
          <mxGeometry x="1090" y="420" width="120" height="60" as="geometry" />
        </mxCell>
        <mxCell id="x2fH5rVGVbDpRsm9OSpx-55" value="" style="endArrow=classic;html=1;rounded=0;exitX=0.5;exitY=1;exitDx=0;exitDy=0;" parent="1" source="x2fH5rVGVbDpRsm9OSpx-52" target="x2fH5rVGVbDpRsm9OSpx-53" edge="1">
          <mxGeometry width="50" height="50" relative="1" as="geometry">
            <mxPoint x="1270" y="400" as="sourcePoint" />
            <mxPoint x="1320" y="350" as="targetPoint" />
          </mxGeometry>
        </mxCell>
        <mxCell id="x2fH5rVGVbDpRsm9OSpx-56" value="" style="endArrow=classic;html=1;rounded=0;exitX=0.5;exitY=1;exitDx=0;exitDy=0;entryX=0.5;entryY=0;entryDx=0;entryDy=0;" parent="1" source="x2fH5rVGVbDpRsm9OSpx-53" target="x2fH5rVGVbDpRsm9OSpx-54" edge="1">
          <mxGeometry width="50" height="50" relative="1" as="geometry">
            <mxPoint x="1160" y="240" as="sourcePoint" />
            <mxPoint x="1160" y="300" as="targetPoint" />
          </mxGeometry>
        </mxCell>
        <mxCell id="x2fH5rVGVbDpRsm9OSpx-59" value="Mute" style="rounded=1;whiteSpace=wrap;html=1;" parent="1" vertex="1">
          <mxGeometry x="1320" y="170" width="120" height="60" as="geometry" />
        </mxCell>
        <mxCell id="x2fH5rVGVbDpRsm9OSpx-60" value="Turn off currently playing notes" style="rounded=0;whiteSpace=wrap;html=1;" parent="1" vertex="1">
          <mxGeometry x="1320" y="290" width="120" height="60" as="geometry" />
        </mxCell>
        <mxCell id="x2fH5rVGVbDpRsm9OSpx-61" value="" style="endArrow=classic;html=1;rounded=0;exitX=0.5;exitY=1;exitDx=0;exitDy=0;" parent="1" source="x2fH5rVGVbDpRsm9OSpx-59" target="x2fH5rVGVbDpRsm9OSpx-60" edge="1">
          <mxGeometry width="50" height="50" relative="1" as="geometry">
            <mxPoint x="1500" y="400" as="sourcePoint" />
            <mxPoint x="1550" y="350" as="targetPoint" />
          </mxGeometry>
        </mxCell>
        <mxCell id="x2fH5rVGVbDpRsm9OSpx-62" value="Is audio muted" style="rhombus;whiteSpace=wrap;html=1;" parent="1" vertex="1">
          <mxGeometry x="1340" y="400" width="80" height="80" as="geometry" />
        </mxCell>
        <mxCell id="x2fH5rVGVbDpRsm9OSpx-63" value="Unmute audio" style="rounded=0;whiteSpace=wrap;html=1;" parent="1" vertex="1">
          <mxGeometry x="1490" y="410" width="120" height="60" as="geometry" />
        </mxCell>
        <mxCell id="x2fH5rVGVbDpRsm9OSpx-64" value="Mute audio" style="rounded=0;whiteSpace=wrap;html=1;" parent="1" vertex="1">
          <mxGeometry x="1320" y="530" width="120" height="60" as="geometry" />
        </mxCell>
        <mxCell id="x2fH5rVGVbDpRsm9OSpx-66" value="" style="endArrow=classic;html=1;rounded=0;exitX=1;exitY=0.5;exitDx=0;exitDy=0;entryX=1;entryY=1;entryDx=0;entryDy=0;" parent="1" target="x2fH5rVGVbDpRsm9OSpx-67" edge="1">
          <mxGeometry width="50" height="50" relative="1" as="geometry">
            <mxPoint x="1420" y="439.99999999999994" as="sourcePoint" />
            <mxPoint x="1510" y="439.99999999999994" as="targetPoint" />
          </mxGeometry>
        </mxCell>
        <mxCell id="x2fH5rVGVbDpRsm9OSpx-67" value="Yes" style="text;html=1;align=center;verticalAlign=middle;whiteSpace=wrap;rounded=0;" parent="1" vertex="1">
          <mxGeometry x="1430" y="409.99999999999994" width="60" height="30" as="geometry" />
        </mxCell>
        <mxCell id="x2fH5rVGVbDpRsm9OSpx-68" value="" style="endArrow=classic;html=1;rounded=0;exitX=0.5;exitY=1;exitDx=0;exitDy=0;entryX=0.5;entryY=0;entryDx=0;entryDy=0;" parent="1" source="x2fH5rVGVbDpRsm9OSpx-62" edge="1">
          <mxGeometry width="50" height="50" relative="1" as="geometry">
            <mxPoint x="1380" y="440" as="sourcePoint" />
            <mxPoint x="1380" y="530" as="targetPoint" />
          </mxGeometry>
        </mxCell>
        <mxCell id="x2fH5rVGVbDpRsm9OSpx-69" value="No" style="text;html=1;align=center;verticalAlign=middle;whiteSpace=wrap;rounded=0;" parent="1" vertex="1">
          <mxGeometry x="1380" y="480" width="60" height="30" as="geometry" />
        </mxCell>
        <mxCell id="x2fH5rVGVbDpRsm9OSpx-70" value="" style="endArrow=classic;html=1;rounded=0;exitX=0.5;exitY=1;exitDx=0;exitDy=0;entryX=0.5;entryY=0;entryDx=0;entryDy=0;" parent="1" source="x2fH5rVGVbDpRsm9OSpx-60" target="x2fH5rVGVbDpRsm9OSpx-62" edge="1">
          <mxGeometry width="50" height="50" relative="1" as="geometry">
            <mxPoint x="1420" y="340" as="sourcePoint" />
            <mxPoint x="1470" y="290" as="targetPoint" />
          </mxGeometry>
        </mxCell>
        <mxCell id="x2fH5rVGVbDpRsm9OSpx-71" value="Random" style="rounded=1;whiteSpace=wrap;html=1;" parent="1" vertex="1">
          <mxGeometry x="1320" y="710" width="120" height="60" as="geometry" />
        </mxCell>
        <mxCell id="x2fH5rVGVbDpRsm9OSpx-72" value="Select a random sorting algorithm" style="rounded=0;whiteSpace=wrap;html=1;" parent="1" vertex="1">
          <mxGeometry x="1320" y="830" width="120" height="60" as="geometry" />
        </mxCell>
        <mxCell id="x2fH5rVGVbDpRsm9OSpx-73" value="Is selected sort equal to current sort" style="rhombus;whiteSpace=wrap;html=1;" parent="1" vertex="1">
          <mxGeometry x="1300" y="950" width="160" height="160" as="geometry" />
        </mxCell>
        <mxCell id="x2fH5rVGVbDpRsm9OSpx-74" value="Set current sort to selected sort" style="rounded=0;whiteSpace=wrap;html=1;" parent="1" vertex="1">
          <mxGeometry x="1320" y="1180" width="120" height="60" as="geometry" />
        </mxCell>
        <mxCell id="x2fH5rVGVbDpRsm9OSpx-75" value="" style="endArrow=classic;html=1;rounded=0;exitX=0.5;exitY=1;exitDx=0;exitDy=0;entryX=0.5;entryY=0;entryDx=0;entryDy=0;" parent="1" source="x2fH5rVGVbDpRsm9OSpx-71" target="x2fH5rVGVbDpRsm9OSpx-72" edge="1">
          <mxGeometry width="50" height="50" relative="1" as="geometry">
            <mxPoint x="1460" y="990" as="sourcePoint" />
            <mxPoint x="1510" y="940" as="targetPoint" />
          </mxGeometry>
        </mxCell>
        <mxCell id="x2fH5rVGVbDpRsm9OSpx-76" value="" style="endArrow=classic;html=1;rounded=0;exitX=0.5;exitY=1;exitDx=0;exitDy=0;" parent="1" source="x2fH5rVGVbDpRsm9OSpx-72" target="x2fH5rVGVbDpRsm9OSpx-73" edge="1">
          <mxGeometry width="50" height="50" relative="1" as="geometry">
            <mxPoint x="1460" y="990" as="sourcePoint" />
            <mxPoint x="1510" y="940" as="targetPoint" />
          </mxGeometry>
        </mxCell>
        <mxCell id="x2fH5rVGVbDpRsm9OSpx-77" value="" style="endArrow=classic;html=1;rounded=0;exitX=0.5;exitY=1;exitDx=0;exitDy=0;" parent="1" source="x2fH5rVGVbDpRsm9OSpx-73" target="x2fH5rVGVbDpRsm9OSpx-74" edge="1">
          <mxGeometry width="50" height="50" relative="1" as="geometry">
            <mxPoint x="1550" y="1030" as="sourcePoint" />
            <mxPoint x="1600" y="980" as="targetPoint" />
          </mxGeometry>
        </mxCell>
        <mxCell id="x2fH5rVGVbDpRsm9OSpx-78" value="No" style="text;html=1;align=center;verticalAlign=middle;whiteSpace=wrap;rounded=0;" parent="1" vertex="1">
          <mxGeometry x="1380" y="1130" width="60" height="30" as="geometry" />
        </mxCell>
        <mxCell id="x2fH5rVGVbDpRsm9OSpx-81" value="" style="endArrow=classic;html=1;rounded=0;exitX=1;exitY=0.5;exitDx=0;exitDy=0;entryX=1.023;entryY=0.395;entryDx=0;entryDy=0;entryPerimeter=0;" parent="1" source="x2fH5rVGVbDpRsm9OSpx-73" target="x2fH5rVGVbDpRsm9OSpx-72" edge="1">
          <mxGeometry width="50" height="50" relative="1" as="geometry">
            <mxPoint x="1490" y="1070" as="sourcePoint" />
            <mxPoint x="1540" y="1020" as="targetPoint" />
            <Array as="points">
              <mxPoint x="1520" y="1030" />
              <mxPoint x="1520" y="940" />
              <mxPoint x="1520" y="854" />
            </Array>
          </mxGeometry>
        </mxCell>
        <mxCell id="x2fH5rVGVbDpRsm9OSpx-82" value="Yes" style="text;html=1;align=center;verticalAlign=middle;whiteSpace=wrap;rounded=0;" parent="1" vertex="1">
          <mxGeometry x="1460" y="1000" width="60" height="30" as="geometry" />
        </mxCell>
      </root>
    </mxGraphModel>
  </diagram>
</mxfile>
